<?xml version="1.0" encoding="UTF-8"?>
<!DOCTYPE svg PUBLIC "-//W3C//DTD SVG 1.1//EN" "http://www.w3.org/Graphics/SVG/1.1/DTD/svg11.dtd">
<svg xmlns="http://www.w3.org/2000/svg" version="1.1" width="100px" height="100px" style="shape-rendering:geometricPrecision; text-rendering:geometricPrecision; image-rendering:optimizeQuality; fill-rule:evenodd; clip-rule:evenodd" xmlns:xlink="http://www.w3.org/1999/xlink">
<g><path style="opacity:1" fill="#fffefd" d="M -0.5,-0.5 C 32.8333,-0.5 66.1667,-0.5 99.5,-0.5C 99.5,32.8333 99.5,66.1667 99.5,99.5C 86.1667,99.5 72.8333,99.5 59.5,99.5C 63.0007,98.2005 66.6674,97.0338 70.5,96C 72.8705,93.3255 74.0372,90.1589 74,86.5C 78.8313,82.3442 79.8313,77.3442 77,71.5C 75.6865,68.3757 74.5198,65.209 73.5,62C 75.8414,56.8157 78.3414,51.649 81,46.5C 86.3447,27.6937 80.5114,13.527 63.5,4C 44.8964,-3.02055 29.7298,1.47945 18,17.5C 12.0785,29.4589 12.0785,41.4589 18,53.5C 19.8123,56.2802 21.979,58.7802 24.5,61C 29.2628,63.7976 33.7628,66.9643 38,70.5C 37.8286,77.028 39.1619,83.3614 42,89.5C 43.9251,91.2132 46.0918,92.5465 48.5,93.5C 49.5096,96.1412 51.1763,98.1412 53.5,99.5C 35.5,99.5 17.5,99.5 -0.5,99.5C -0.5,66.1667 -0.5,32.8333 -0.5,-0.5 Z"/></g>
<g><path style="opacity:1" fill="#f79110" d="M 59.5,99.5 C 57.5,99.5 55.5,99.5 53.5,99.5C 51.1763,98.1412 49.5096,96.1412 48.5,93.5C 46.0918,92.5465 43.9251,91.2132 42,89.5C 39.1619,83.3614 37.8286,77.028 38,70.5C 33.7628,66.9643 29.2628,63.7976 24.5,61C 21.979,58.7802 19.8123,56.2802 18,53.5C 12.0785,41.4589 12.0785,29.4589 18,17.5C 29.7298,1.47945 44.8964,-3.02055 63.5,4C 80.5114,13.527 86.3447,27.6937 81,46.5C 78.3414,51.649 75.8414,56.8157 73.5,62C 74.5198,65.209 75.6865,68.3757 77,71.5C 79.8313,77.3442 78.8313,82.3442 74,86.5C 74.0372,90.1589 72.8705,93.3255 70.5,96C 66.6674,97.0338 63.0007,98.2005 59.5,99.5 Z"/></g>
<g><path style="opacity:1" fill="#160c00" d="M 40.5,5.5 C 57.2817,3.24355 69.4484,9.57688 77,24.5C 78.3585,29.7753 78.6919,35.1087 78,40.5C 74.4201,47.8263 71.2534,55.3263 68.5,63C 68.7307,65.9089 69.8974,68.4089 72,70.5C 72.4461,73.343 72.9461,76.1764 73.5,79C 73.2515,82.082 71.5849,83.582 68.5,83.5C 70.6469,87.7633 69.6469,90.93 65.5,93C 61.8779,94.1056 58.2113,94.4389 54.5,94C 52.8446,92.5557 52.178,90.7224 52.5,88.5C 49.8431,88.838 47.5098,88.1713 45.5,86.5C 43.1922,80.9678 42.3588,75.3011 43,69.5C 36.1475,64.0706 29.4809,58.4039 23,52.5C 12.5738,30.6975 18.4071,15.0308 40.5,5.5 Z"/></g>
<g><path style="opacity:1" fill="#f98f00" d="M 40.5,8.5 C 55.5646,5.90013 66.7313,11.2335 74,24.5C 75.5174,30.0802 75.8508,35.7469 75,41.5C 72.8606,47.1122 70.1939,52.4455 67,57.5C 66.0467,60.4318 65.5467,63.4318 65.5,66.5C 64.1779,66.67 63.0113,66.3366 62,65.5C 60.6387,57.7214 58.8053,50.0547 56.5,42.5C 58.4167,39.9164 60.75,37.5831 63.5,35.5C 65.1667,29.1667 62.8333,26.8333 56.5,28.5C 53.9429,31.6993 52.9429,35.366 53.5,39.5C 50.4752,39.8769 47.4752,40.0435 44.5,40C 42.4147,35.5388 39.0814,33.2055 34.5,33C 31.2091,35.332 30.7091,38.1653 33,41.5C 36.3642,42.7393 39.8642,43.4059 43.5,43.5C 45.6578,52.4647 47.6578,61.4647 49.5,70.5C 45.512,68.0345 41.8454,64.8678 38.5,61C 21.3975,52.301 16.5642,39.1343 24,21.5C 28.1656,15.3502 33.6656,11.0168 40.5,8.5 Z"/></g>
<g><path style="opacity:1" fill="#de8000" d="M 57.5,30.5 C 58.8333,30.5 60.1667,30.5 61.5,30.5C 61.6567,31.8734 61.49,33.2068 61,34.5C 56.3892,38.277 55.2226,36.9437 57.5,30.5 Z"/></g>
<g><path style="opacity:1" fill="#e78500" d="M 35.5,35.5 C 37.9732,35.736 39.6399,37.0693 40.5,39.5C 35.6822,41.5839 34.0155,40.2505 35.5,35.5 Z"/></g>
<g><path style="opacity:1" fill="#f18a00" d="M 47.5,42.5 C 49.8333,42.5 52.1667,42.5 54.5,42.5C 56.0044,50.1861 57.671,57.8528 59.5,65.5C 59.1822,66.6473 58.5156,67.4806 57.5,68C 55.5273,68.4955 53.5273,68.6621 51.5,68.5C 49.945,60.6618 48.2783,52.8285 46.5,45C 46.7432,44.0979 47.0766,43.2646 47.5,42.5 Z"/></g>
<g><path style="opacity:1" fill="#e88600" d="M 63.5,68.5 C 67.5123,67.8874 69.5123,69.5541 69.5,73.5C 61.5028,75.1658 53.5028,76.8325 45.5,78.5C 45.2606,76.5328 45.5939,74.6995 46.5,73C 52.4088,71.9412 58.0755,70.4412 63.5,68.5 Z"/></g>
<g><path style="opacity:1" fill="#e68500" d="M 68.5,75.5 C 69.6491,75.7911 70.3158,76.6244 70.5,78C 70.3333,78.8333 70.1667,79.6667 70,80.5C 62.6179,83.0904 55.1179,84.4237 47.5,84.5C 46.7542,83.2638 46.4208,81.9305 46.5,80.5C 54.0863,79.4343 61.4196,77.7676 68.5,75.5 Z"/></g>
<g><path style="opacity:1" fill="#e98600" d="M 63.5,84.5 C 66.2436,85.0717 67.0769,86.7383 66,89.5C 62.875,90.7687 59.7083,91.602 56.5,92C 55.8333,90.6667 55.1667,89.3333 54.5,88C 57.5113,86.6727 60.5113,85.506 63.5,84.5 Z"/></g>
</svg>
