<?xml version="1.0" encoding="UTF-8"?>
<svg version="1.1" xmlns="http://www.w3.org/2000/svg" width="500" height="500">
<path d="M0 0 C165 0 330 0 500 0 C500 165 500 330 500 500 C335 500 170 500 0 500 C0 335 0 170 0 0 Z " fill="#FEFEFE" transform="translate(0,0)"/>
<path d="M0 0 C7.32337655 3.89541306 12.65428647 10.52319925 18.00390625 16.71875 C21.24656699 20.42464799 24.58855139 24.03893095 27.92602539 27.65917969 C29.84155968 29.7384402 31.75017045 31.82331069 33.65429688 33.91308594 C41.02753736 41.98985531 48.6169655 49.83413152 56.33813477 57.57836914 C58.33484217 59.58495267 60.32062391 61.60198215 62.30664062 63.61914062 C63.59569789 64.9147158 64.8853883 66.20966141 66.17578125 67.50390625 C67.04944084 68.39608604 67.04944084 68.39608604 67.94075012 69.30628967 C72.86484331 74.20405814 78.12325575 78.5322299 85.375 78.75 C91.01906646 78.4952063 93.95793948 76.54512712 97.890625 72.60546875 C101.01510586 68.74615627 103.40686046 64.53002357 105.9140625 60.25390625 C112.95398753 49.27215054 123.30743286 41.93310101 136 39 C150.24190495 37.48866525 162.7041144 38.95450749 174.375 47.8125 C185.66692206 57.60371281 191.71073901 67.80428792 193.2890625 82.734375 C193.8795871 94.23406458 190.51043928 106.29237799 182.84375 115.0078125 C182.2353125 115.66523437 181.626875 116.32265625 181 117 C180.26652344 117.96808594 179.53304688 118.93617187 178.77734375 119.93359375 C175.28544868 124.14763121 170.67061937 126.45932217 165.97070312 129.12304688 C160.2256718 132.5156104 155.16861662 136.49415015 153 143 C151.98883257 150.078172 155.09526058 154.40476173 159 160 C161.63535673 163.11779046 164.47932764 165.9729575 167.3984375 168.82421875 C168.19222809 169.61472122 168.98601868 170.40522369 169.80386353 171.21968079 C172.31830475 173.71851386 174.84657475 176.20282666 177.375 178.6875 C179.06336876 180.3643601 180.7508764 182.04208771 182.4375 183.72070312 C184.06954222 185.33931871 185.70233007 186.95718289 187.3359375 188.57421875 C188.45976334 189.68696419 188.45976334 189.68696419 189.60629272 190.82218933 C193.68676323 194.82999893 197.84672065 198.69571441 202.18533325 202.423172 C205.37264587 205.19274046 208.42806171 208.10387629 211.5 211 C215.50294585 214.76208517 219.50842083 218.49499339 223.6875 222.0625 C230.67175348 228.19464412 230.67175348 228.19464412 231.375 232.0625 C231.85728583 240.98478783 226.65706112 246.75117498 221 253.0625 C219.83676188 254.38108914 218.67401266 255.70010974 217.51171875 257.01953125 C216.92567871 257.68162598 216.33963867 258.3437207 215.73583984 259.02587891 C213.05896412 262.07021324 210.43830365 265.16165061 207.8125 268.25 C203.37711299 273.44652761 198.84093289 278.5307566 194.21875 283.5625 C192.33196831 285.63530242 190.502467 287.73974471 188.6875 289.875 C168.31521399 313.19209513 168.31521399 313.19209513 155.20703125 314.21875 C147.10672893 314.4602497 142.52271052 313.41754643 135.8125 308.8125 C128.98183651 301.98183651 127.08933923 293.01254715 126.125 283.625 C124.94567371 274.42625496 122.3782076 266.11156252 115 260 C107.7745503 255.77473703 100.67744049 254.91129905 92.53515625 256.47265625 C75.10918645 261.07002901 60.51059874 273.80294835 51.125 288.875 C46.24602169 297.71602566 43.42990373 307.86843542 45 318 C47.73192314 326.17241966 51.68976298 330.84488149 59.375 334.6875 C63.39440311 336.07853626 67.48209834 336.43876323 71.6875 336.875 C81.08240297 337.90087392 90.48304587 339.685429 97.125 346.9375 C98.11722566 348.26703314 99.08040828 349.61923166 100 351 C100.639375 351.886875 101.27875 352.77375 101.9375 353.6875 C104.18281694 360.68760574 104.19673669 368.28898177 101.1875 375.0625 C97.47207237 381.52275198 92.18666814 386.72330291 87 392 C86.00095799 393.03742917 85.00225953 394.07518928 84.00390625 395.11328125 C78.55085213 400.72611882 72.91612339 405.84825254 66.78125 410.72265625 C63.74420345 413.20945139 60.87041999 415.82518562 58 418.5 C52.52749106 423.58451282 46.83396733 428.33282614 41 433 C40.08605469 433.74765625 39.17210937 434.4953125 38.23046875 435.265625 C37.35003906 435.98234375 36.46960938 436.6990625 35.5625 437.4375 C34.78003906 438.07558594 33.99757813 438.71367187 33.19140625 439.37109375 C30.0530487 441.70388359 27.67461592 442.88095013 23.8125 443.5625 C15.07655887 442.27359065 9.38510592 434.45042035 4 428 C1.02475598 424.64433355 -1.98828468 421.32294186 -5 418 C-5.44424316 417.50918945 -5.88848633 417.01837891 -6.34619141 416.51269531 C-11.45906323 410.87078203 -16.62090313 405.3152562 -22.05419922 399.97753906 C-23.83917238 398.16345091 -25.50136634 396.30271078 -27.15234375 394.3671875 C-31.36347999 389.5270065 -35.80416787 384.93764939 -40.3125 380.375 C-41.10333984 379.55515625 -41.89417969 378.7353125 -42.70898438 377.890625 C-49.0450458 371.48765147 -55.86236509 364.93366707 -65.25 364.375 C-70.63104124 364.76176234 -73.87068767 366.56076081 -77.44921875 370.66015625 C-80.39413628 374.42439467 -82.85025075 378.40948915 -85.3125 382.5 C-91.96801048 392.97519476 -102.67720763 400.86871993 -114.921875 403.66796875 C-128.76920363 405.16165268 -140.78866736 404.41820186 -152.5 396 C-161.42105514 388.64666166 -170.28638761 378.8511511 -172 367 C-173.2209995 350.04506002 -171.30887747 338.18104063 -160 325 C-159.14728516 323.78763672 -159.14728516 323.78763672 -158.27734375 322.55078125 C-154.81370862 318.67127226 -150.50346847 316.4797121 -146.01953125 313.92578125 C-140.26448594 310.51177132 -135.17537724 306.52613171 -133 300 C-132.29726744 292.83212784 -134.38296744 288.30943131 -138.7421875 282.796875 C-141.08824052 280.12325986 -143.51741919 277.54586228 -146 275 C-146.57814453 274.40670898 -147.15628906 273.81341797 -147.75195312 273.20214844 C-153.99175307 266.83006732 -160.22510796 260.4883872 -167.046875 254.734375 C-169.64074575 252.43101777 -172.06462995 249.96791856 -174.5 247.5 C-178.11087629 243.84569288 -181.79041378 240.34984373 -185.69921875 237.015625 C-189.51733853 233.6707187 -193.20270883 230.181325 -196.90161133 226.70556641 C-199.64614769 224.13790963 -202.40675607 221.63091385 -205.3125 219.24609375 C-209.39542565 215.8337649 -210.77056248 213.52958348 -211.5625 208.25 C-211.09935679 198.68431143 -201.47709506 190.6391485 -195.51171875 183.75 C-193.97886332 181.9755317 -192.45681756 180.19231798 -190.9375 178.40625 C-185.7064153 172.26266031 -180.42148066 166.18122784 -174.9921875 160.2109375 C-173.2275287 158.25251225 -171.51737864 156.26023004 -169.8125 154.25 C-148.22707262 129.59531605 -148.22707262 129.59531605 -136.70703125 128.76171875 C-128.25595693 128.60066518 -121.89284277 128.68008964 -115.33203125 134.47265625 C-108.94704265 141.14142212 -106.96912047 148.89871685 -106.0625 157.875 C-105.15925647 166.59883565 -103.35855069 175.33313988 -96.6875 181.5625 C-91.01061942 185.71004853 -85.01219457 187.72884819 -77.95703125 187.46875 C-62.05283915 184.9476099 -47.11713489 175.32067753 -37 163 C-34.0462158 158.80668136 -31.4487815 154.50509463 -29 150 C-28.31357422 148.74896484 -28.31357422 148.74896484 -27.61328125 147.47265625 C-23.89922033 139.64054885 -23.64922708 130.62688837 -25.66015625 122.25 C-27.76687261 116.85096932 -30.9600509 112.88627558 -36 110 C-42.39575266 107.37765486 -48.85656641 105.93552337 -55.6875 105 C-64.21442456 103.81570492 -71.98233167 101.43750566 -78 95 C-82.82837597 88.04560171 -84.32434705 81.36898307 -83 73 C-80.37241516 63.97541543 -73.41821451 57.51966153 -67 51 C-66.19691406 50.16984375 -65.39382812 49.3396875 -64.56640625 48.484375 C-60.55964922 44.40123265 -56.42746422 40.52844757 -52.0859375 36.8046875 C-49.74974499 34.78348724 -47.47035149 32.70621161 -45.1875 30.625 C-40.8190408 26.67800011 -36.30269437 22.95533976 -31.72265625 19.2578125 C-29.04749186 17.03938349 -26.49052673 14.73225473 -23.9375 12.375 C-9.34095885 -0.91578028 -9.34095885 -0.91578028 0 0 Z " fill="#78B159" transform="translate(249,9)"/>
</svg>
